<svg id="Layer_1" data-name="Layer 1" xmlns="http://www.w3.org/2000/svg" xmlns:xlink="http://www.w3.org/1999/xlink" viewBox="0 0 434 64"><defs><style>.cls-1{fill:url(#radial-gradient);}.cls-2{fill:#fff;}</style><radialGradient id="radial-gradient" cx="54.17" cy="63.17" r="72.02" gradientUnits="userSpaceOnUse"><stop offset="0" stop-color="#ec991c"/><stop offset="1" stop-color="#e9b213"/></radialGradient></defs><title>nimiq_miner</title><path class="cls-1" d="M71.2,29l-15-26A6,6,0,0,0,51,0H21a6,6,0,0,0-5.19,3L.8,29a6,6,0,0,0,0,6l15,26A6,6,0,0,0,21,64H51a6,6,0,0,0,5.19-3l15-26A6,6,0,0,0,71.2,29Z"/><path class="cls-2" d="M126,12.55h4.21V51h-3.46L103.54,20.06V51H99.38V12.55h3.4L126,43.49Z"/><path class="cls-2" d="M144,51V12.55h4.43V51Z"/><path class="cls-2" d="M194.9,12.55h3.67V51h-4.1V22.43L182,51h-3.14L166.28,22.65,166.34,51h-4.11V12.55h3.67l14.58,33.16Z"/><path class="cls-2" d="M212.4,51V12.55h4.43V51Z"/><path class="cls-2" d="M260.19,58.51l-3.08,2.8a29.44,29.44,0,0,1-4.54-4.4,37.49,37.49,0,0,1-3.94-5.59c-.79.08-1.42.11-1.89.11a17.7,17.7,0,0,1-9.29-2.37,15.68,15.68,0,0,1-6.07-6.83,24,24,0,0,1-2.13-10.45,24.25,24.25,0,0,1,2.1-10.48,15.49,15.49,0,0,1,6.05-6.8,19.52,19.52,0,0,1,18.68,0,15.43,15.43,0,0,1,6.05,6.8,24,24,0,0,1,2.11,10.42,22.89,22.89,0,0,1-2.89,11.91,15.28,15.28,0,0,1-8.13,6.72A30.14,30.14,0,0,0,260.19,58.51Zm-23-15q3.4,4.17,9.56,4.16t9.51-4.16q3.39-4.16,3.4-11.77T256.27,20q-3.37-4.1-9.53-4.1T237.18,20q-3.39,4.14-3.4,11.69T237.18,43.49Z"/><path class="cls-2" d="M326.44,12.55H332V51H325.8V27.13L315.59,51H311L300.74,27.4V51h-6.16V12.55h5.51l13.23,30.08Z"/><path class="cls-2" d="M339.46,11.36H347V18h-7.5ZM339.89,51V23.73h6.7V51Z"/><path class="cls-2" d="M379.36,34.26V51h-6.75V34.58a7.29,7.29,0,0,0-1.24-4.72,4.71,4.71,0,0,0-3.83-1.48,6.54,6.54,0,0,0-5,2,7.21,7.21,0,0,0-1.89,5.21V51H354V31.45a61.46,61.46,0,0,0-.43-7.72h6.32l.48,4.48a10,10,0,0,1,3.81-3.83A10.88,10.88,0,0,1,369.59,23Q379.36,23,379.36,34.26Z"/><path class="cls-2" d="M410.41,37.72H391.62q.21,4.37,2.19,6.45c1.31,1.39,3.27,2.08,5.86,2.08A13.41,13.41,0,0,0,408,43.33L409.93,48a15.33,15.33,0,0,1-4.78,2.51,18.08,18.08,0,0,1-5.75.94q-6.7,0-10.53-3.78T385,37.29a15.82,15.82,0,0,1,1.68-7.4,12.26,12.26,0,0,1,4.7-5.05A13,13,0,0,1,398.26,23a11.33,11.33,0,0,1,8.89,3.64q3.25,3.64,3.26,10ZM394,29.48a7.79,7.79,0,0,0-2.18,4.62h12.69a7.54,7.54,0,0,0-1.87-4.64,5.64,5.64,0,0,0-4.24-1.57A6.19,6.19,0,0,0,394,29.48Z"/><path class="cls-2" d="M433.52,23.51l0,6.16a9.33,9.33,0,0,0-3.56-.7,6.72,6.72,0,0,0-5.27,2,7.6,7.6,0,0,0-1.81,5.29V51h-6.69V31.45a63.42,63.42,0,0,0-.43-7.72H422l.54,4.81a8.12,8.12,0,0,1,3.24-4.05,9.17,9.17,0,0,1,5-1.41A7.7,7.7,0,0,1,433.52,23.51Z"/></svg>