<svg id="Layer_1" data-name="Layer 1" xmlns="http://www.w3.org/2000/svg" xmlns:xlink="http://www.w3.org/1999/xlink" viewBox="0 0 421 64"><defs><style>.cls-1{fill:url(#radial-gradient);}.cls-2{fill:#1f2348;}</style><radialGradient id="radial-gradient" cx="54.17" cy="63.17" r="72.02" gradientUnits="userSpaceOnUse"><stop offset="0" stop-color="#ec991c"/><stop offset="1" stop-color="#e9b213"/></radialGradient></defs><title>nimiq_shop</title><path class="cls-1" d="M71.2,29l-15-26A6,6,0,0,0,51,0H21a6,6,0,0,0-5.19,3L.8,29a6,6,0,0,0,0,6l15,26A6,6,0,0,0,21,64H51a6,6,0,0,0,5.19-3l15-26A6,6,0,0,0,71.2,29Z"/><path class="cls-2" d="M126,12.55h4.21V51h-3.46L103.54,20.06V51H99.38V12.55h3.4L126,43.5Z"/><path class="cls-2" d="M144,51V12.55h4.43V51Z"/><path class="cls-2" d="M194.9,12.55h3.67V51h-4.1V22.43L182,51h-3.14L166.28,22.65,166.34,51h-4.11V12.55h3.67l14.58,33.16Z"/><path class="cls-2" d="M212.4,51V12.55h4.43V51Z"/><path class="cls-2" d="M260.19,58.51l-3.08,2.8a29.44,29.44,0,0,1-4.54-4.4,37.93,37.93,0,0,1-3.94-5.58c-.79.07-1.42.1-1.89.1a17.7,17.7,0,0,1-9.29-2.37,15.68,15.68,0,0,1-6.07-6.83,24,24,0,0,1-2.13-10.45,24.25,24.25,0,0,1,2.1-10.48,15.49,15.49,0,0,1,6.05-6.8,19.52,19.52,0,0,1,18.68,0,15.43,15.43,0,0,1,6.05,6.8,24,24,0,0,1,2.11,10.42,22.89,22.89,0,0,1-2.89,11.91,15.28,15.28,0,0,1-8.13,6.72A30,30,0,0,0,260.19,58.51Zm-23-15q3.4,4.16,9.56,4.15t9.51-4.15q3.39-4.17,3.4-11.78T256.27,20q-3.37-4.1-9.53-4.1T237.18,20q-3.39,4.14-3.4,11.69T237.18,43.5Z"/><path class="cls-2" d="M299.2,50.3a19.15,19.15,0,0,1-6.56-3.4L295,41.82a20.38,20.38,0,0,0,5.86,3.11,21.44,21.44,0,0,0,6.66,1,11.42,11.42,0,0,0,6.19-1.4,4.43,4.43,0,0,0,2.18-3.94,3.63,3.63,0,0,0-2-3.32,25,25,0,0,0-6.67-2.19Q300,33.51,296.69,31a8.49,8.49,0,0,1-3.29-7.24,10.36,10.36,0,0,1,1.83-6,12.26,12.26,0,0,1,5.21-4.16,18.89,18.89,0,0,1,7.81-1.51,24.14,24.14,0,0,1,7.69,1.21,16.12,16.12,0,0,1,6,3.38l-2.32,5.07a17.76,17.76,0,0,0-11.34-4.1,9.94,9.94,0,0,0-5.89,1.54,4.86,4.86,0,0,0-2.16,4.18,3.83,3.83,0,0,0,1.92,3.46A22.66,22.66,0,0,0,308.68,29a47.57,47.57,0,0,1,7.83,2.46,11.71,11.71,0,0,1,4.64,3.4,8.22,8.22,0,0,1,1.62,5.21,10.08,10.08,0,0,1-1.83,6,11.71,11.71,0,0,1-5.3,4,21.48,21.48,0,0,1-8.15,1.41A28.11,28.11,0,0,1,299.2,50.3Z"/><path class="cls-2" d="M354.15,34.26V51H347.4V34.58a7.28,7.28,0,0,0-1.25-4.72,4.7,4.7,0,0,0-3.83-1.49,6.56,6.56,0,0,0-5,2,7.21,7.21,0,0,0-1.89,5.21V51h-6.69V11.26h6.69V27.67a9.69,9.69,0,0,1,3.73-3.43A11,11,0,0,1,344.37,23Q354.15,23,354.15,34.26Z"/><path class="cls-2" d="M366.38,49.71a11.78,11.78,0,0,1-4.86-5,15.79,15.79,0,0,1-1.7-7.53,15.79,15.79,0,0,1,1.7-7.53,11.75,11.75,0,0,1,4.86-4.94A14.88,14.88,0,0,1,373.69,23a14.66,14.66,0,0,1,7.24,1.73,11.8,11.8,0,0,1,4.83,4.94,15.79,15.79,0,0,1,1.7,7.53,15.79,15.79,0,0,1-1.7,7.53,11.82,11.82,0,0,1-4.83,5,14.76,14.76,0,0,1-7.24,1.72A15,15,0,0,1,366.38,49.71Zm12.53-5.81c1.2-1.49,1.8-3.72,1.8-6.67s-.61-5.14-1.83-6.67a7.07,7.07,0,0,0-10.42,0q-1.84,2.3-1.84,6.67c0,3,.6,5.18,1.81,6.67a6.31,6.31,0,0,0,5.21,2.24A6.4,6.4,0,0,0,378.91,43.9Z"/><path class="cls-2" d="M415.08,24.84a12.07,12.07,0,0,1,4.27,5.07,17.3,17.3,0,0,1,1.54,7.48,17,17,0,0,1-1.51,7.4,11.14,11.14,0,0,1-10.53,6.64,10.78,10.78,0,0,1-5.29-1.27A8.73,8.73,0,0,1,400,46.63v16H393.3V31.45a61.33,61.33,0,0,0-.44-7.72h6.32l.54,4.7a8.26,8.26,0,0,1,3.51-4,11.69,11.69,0,0,1,11.85.38Zm-2.83,19a10.08,10.08,0,0,0,1.84-6.48,10.81,10.81,0,0,0-1.84-6.67,6.14,6.14,0,0,0-5.18-2.4,6.38,6.38,0,0,0-5.3,2.32q-1.83,2.32-1.83,6.65a10.31,10.31,0,0,0,1.83,6.56,7.16,7.16,0,0,0,10.48,0Z"/></svg>