<svg id="Layer_1" data-name="Layer 1" xmlns="http://www.w3.org/2000/svg" xmlns:xlink="http://www.w3.org/1999/xlink" viewBox="0 0 171 181"><defs><style>.cls-1{fill:url(#radial-gradient);}.cls-2{fill:#fff;}</style><radialGradient id="radial-gradient" cx="179.13" cy="157.4" r="118.99" gradientTransform="translate(-39.09 -44.14) scale(0.83 0.83)" gradientUnits="userSpaceOnUse"><stop offset="0" stop-color="#ec991c"/><stop offset="1" stop-color="#e9b213"/></radialGradient></defs><title>nimiq_logo_rgb_white_vertical</title><path class="cls-1" d="M133.4,39.88,112.77,4.12A8.25,8.25,0,0,0,105.63,0H64.37a8.25,8.25,0,0,0-7.14,4.12L36.6,39.88a8.25,8.25,0,0,0,0,8.24L57.23,83.88A8.25,8.25,0,0,0,64.37,88h41.26a8.25,8.25,0,0,0,7.14-4.12L133.4,48.12A8.25,8.25,0,0,0,133.4,39.88Z"/><path class="cls-2" d="M25.5,132H32v38H27L6.5,143.5V170H0V132H5l20.5,26.5Z"/><path class="cls-2" d="M45,170V132h7v38Z"/><path class="cls-2" d="M96.5,132H102v38H96V146.5L85.75,170h-4.5L71,146.5V170H65V132h5.5l13,29.75Z"/><path class="cls-2" d="M115,170V132h7v38Z"/><path class="cls-2" d="M168.76,161.34a15.86,15.86,0,0,1-8,7.59,21.09,21.09,0,0,0,3,4.1,38,38,0,0,0,4,3.72L163,180.5a29,29,0,0,1-4.82-4.38,31.82,31.82,0,0,1-4.07-5.67c-.28,0-1.1.05-1.61.05a19.67,19.67,0,0,1-9.89-2.36,15.71,15.71,0,0,1-6.4-6.8A23.51,23.51,0,0,1,134,151a22.34,22.34,0,0,1,2.24-10.34,15.87,15.87,0,0,1,6.42-6.8,21.8,21.8,0,0,1,19.73,0,15.71,15.71,0,0,1,6.4,6.8A22.6,22.6,0,0,1,171,151,23.33,23.33,0,0,1,168.76,161.34Zm-24.73,0a11.7,11.7,0,0,0,16.94,0c2-2.43,3-5.85,3-10.37s-1-8-3-10.39a11.78,11.78,0,0,0-16.94,0c-2,2.39-3,5.9-3,10.42S142,158.94,144,161.37Z"/></svg>